<?xml version="1.0" encoding="UTF-8"?>
<svg version="1.1" xmlns="http://www.w3.org/2000/svg" width="730" height="1024">
<path d="M0 0 C240.9 0 481.8 0 730 0 C724.51893657 64.67654851 724.51893657 64.67654851 722.34277344 88.2421875 C721.70987406 95.18063991 721.10714869 102.12175557 720.5 109.0625 C719.52268014 120.23350999 718.49859738 131.39915116 717.4375 142.5625 C716.46015869 152.84845915 715.56677702 163.1365327 714.76708984 173.43774414 C714.09866113 181.96463462 713.34227279 190.48270097 712.5625 199 C712.49918488 199.69205536 712.43586975 200.38411072 712.37063599 201.09713745 C711.85020638 206.7801496 711.32622594 212.46283339 710.80212402 218.14550781 C710.34561872 223.09685631 709.89046203 228.04832603 709.4375 233 C709.37410431 233.69279053 709.31070862 234.38558105 709.24539185 235.09936523 C708.44233756 243.89551822 707.68641113 252.69393518 707 261.5 C705.59797947 279.47496135 703.90680736 297.42571519 702.2109375 315.375 C702.14658005 316.05630478 702.0822226 316.73760956 702.01591492 317.43955994 C701.95193008 318.11684647 701.88794525 318.794133 701.82202148 319.49194336 C701.75844452 320.16498505 701.69486755 320.83802673 701.62936401 321.53146362 C701.50143109 322.88573748 701.37344035 324.24000587 701.24539185 325.5942688 C700.4461991 334.05910425 699.68882026 342.52548912 699 351 C697.91797151 364.30305256 696.65213295 377.58849681 695.39111328 390.87548828 C691.34503869 433.12600507 691.34503869 433.12600507 687.76708984 475.41772461 C687.08268591 484.11634534 686.33164931 492.80855165 685.5625 501.5 C685.46752731 502.57359772 685.46752731 502.57359772 685.37063599 503.66888428 C684.66288968 511.65667519 683.94360888 519.64336322 683.2109375 527.62890625 C683.14658005 528.33058929 683.0822226 529.03227234 683.01591492 529.75521851 C682.95193008 530.45281281 682.88794525 531.1504071 682.82202148 531.86914062 C682.693837 533.26692611 682.56566313 534.66471256 682.4375 536.0625 C682.37410431 536.75351807 682.31070862 537.44453613 682.24539185 538.15649414 C681.44163148 546.93359343 680.6844796 555.71274257 680 564.5 C679.24525164 574.17273696 678.39483034 583.83426498 677.50338745 593.49533081 C676.58495701 603.45405624 675.69851063 613.41517764 674.8359375 623.37890625 C672.79674767 646.90985511 670.72585931 670.43131654 668.31323242 693.92724609 C667.30274485 703.79058529 666.42421754 713.65595143 665.65209961 723.54125977 C665.09629576 730.4252603 664.24797994 737.20249226 663 744 C652.65648816 747.34507015 642.24107825 750.36741543 631.765625 753.27172852 C624.51219394 755.28602885 617.28272169 757.37001071 610.0625 759.5 C600.65715289 762.26873384 591.20997198 764.84812516 581.73535156 767.3684082 C573.20895363 769.64710276 564.73736794 772.08831184 556.2722168 774.58374023 C549.8021824 776.48726265 543.3172227 778.27546941 536.79296875 779.984375 C531.32673758 781.44804143 525.8919453 783.01695897 520.45361328 784.58056641 C513.54066336 786.56608296 506.61623435 788.50786334 499.6875 790.4375 C491.46030986 792.73009564 483.25489295 795.08618199 475.0625 797.5 C465.57818461 800.29079065 456.05289903 802.8992522 446.50024414 805.4453125 C438.9661123 807.45727137 431.46491257 809.56369773 423.97412109 811.73071289 C415.88294954 814.05975608 407.75068596 816.22809256 399.6105957 818.37915039 C393.59387859 819.98256411 387.65002243 821.71491991 381.72485352 823.62792969 C367.23737685 828.25031712 356.97570609 827.4055916 342.640625 822.77734375 C336.50323459 820.80461112 330.29394374 819.14674102 324.0625 817.5 C315.1522243 815.12892188 306.2702928 812.68154424 297.41040039 810.12890625 C291.94842884 808.55526938 286.47903782 807.01310813 281 805.5 C254.34747113 798.11743029 254.34747113 798.11743029 241.875 794.0625 C233.27730569 791.28273297 224.57247522 789.03732361 215.81616211 786.81665039 C206.96862959 784.55484282 198.19691838 782.07678672 189.4375 779.5 C179.75892052 776.65317367 170.06456473 773.89985646 160.3125 771.3125 C152.10014237 769.13213511 143.94791198 766.82500524 135.82324219 764.33911133 C127.19778392 761.71851141 118.50381218 759.35338783 109.80981445 756.97216797 C101.45981406 754.68393877 93.12574698 752.3477575 84.80761719 749.94628906 C79.51488191 748.42039795 74.20926605 746.97072648 68.86328125 745.640625 C67 745 67 745 65 743 C64.56103516 740.62548828 64.56103516 740.62548828 64.2890625 737.5703125 C64.12676147 735.82391479 64.12676147 735.82391479 63.96118164 734.04223633 C63.8502417 732.74954834 63.73930176 731.45686035 63.625 730.125 C63.50008549 728.74561254 63.37432918 727.36630109 63.24780273 725.98706055 C62.97158427 722.95875758 62.70091521 719.93002306 62.43408203 716.90087891 C61.98693782 711.83260697 61.52376615 706.76586348 61.05859375 701.69921875 C60.38018738 694.29864476 59.70720637 686.8976013 59.0390625 679.49609375 C58.34995868 671.86294996 57.65744123 664.23012844 56.9609375 656.59765625 C54.5179248 629.82242243 52.09094057 603.04639821 49.84375 576.25390625 C49.41687999 571.1692529 48.98975722 566.08462083 48.5625 561 C48.40121109 559.07864227 48.40121109 559.07864227 48.23666382 557.11846924 C46.8110239 540.16597461 45.29133863 523.22712424 43.6277771 506.29641724 C42.20181647 491.73836232 41.04495981 477.1684029 40.03857422 462.57543945 C39.41063264 453.60519595 38.5457438 444.70219556 37.45068359 435.77709961 C36.88606088 431.04509635 36.48232341 426.31376343 36.125 421.5625 C35.30640047 411.22220495 34.3283767 400.90089532 33.32507324 390.57733154 C31.7163692 374.0209923 30.25658444 357.46255399 29.03930664 340.87255859 C28.51749534 333.86228697 27.90405074 326.88697684 27.0390625 319.91015625 C25.82187574 310.05699311 25.06517976 300.17142504 24.26824951 290.27703857 C23.80616288 284.63201159 23.31122445 278.98989372 22.81640625 273.34765625 C22.71511414 272.19103989 22.61382202 271.03442352 22.50946045 269.84275818 C22.19436524 266.24928953 21.87849803 262.65588936 21.5625 259.0625 C21.45294983 257.814758 21.34339966 256.56701599 21.23052979 255.28146362 C19.85357551 239.60079254 18.45995424 223.92188445 17.02587891 208.24633789 C15.26417728 188.98448033 13.50693374 169.7211972 12 150.4375 C11.25776123 140.95178189 10.42911042 131.47505954 9.5625 122 C9.4665303 120.95067795 9.4665303 120.95067795 9.36862183 119.88015747 C8.79430348 113.6083064 8.2157624 107.33684599 7.63671875 101.06542969 C7.27735816 97.16873669 6.91942338 93.27191698 6.5625 89.375 C6.44285889 88.06934082 6.32321777 86.76368164 6.19995117 85.41845703 C5.42014113 76.85455968 4.67999365 68.28763021 3.95703125 59.71875 C3.82262383 58.12747787 3.82262383 58.12747787 3.6855011 56.50405884 C3.23968375 51.21960211 2.79671322 45.93492581 2.35766602 40.64990234 C2.19421979 38.70149349 2.030729 36.75308836 1.8671875 34.8046875 C1.79438065 33.91753052 1.72157379 33.03037354 1.64656067 32.11633301 C1.54090034 30.86354553 1.54090034 30.86354553 1.43310547 29.58544922 C1.37331512 28.86557831 1.31352478 28.1457074 1.25192261 27.40402222 C0.92234007 24.25891451 0.44722091 21.13054637 0 18 C0 12.06 0 6.12 0 0 Z " fill="#0170BA" transform="translate(0,197)"/>
<path d="M0 0 C161.7 0 323.4 0 490 0 C488.84663646 21.9139072 488.84663646 21.9139072 488.31640625 28.71875 C488.25597641 29.51244995 488.19554657 30.3061499 488.13328552 31.12390137 C488.00754899 32.76676983 487.88069822 34.40955342 487.75268555 36.05224609 C487.56254611 38.49940657 487.3777475 40.94693147 487.19335938 43.39453125 C486.49816163 52.47854278 485.67782118 61.53867724 484.67018127 70.59375 C484.05870172 76.14061518 483.67222884 81.66130975 483.44140625 87.23828125 C482.88071366 90.74633135 481.88282261 92.96991532 480 96 C477.6529037 97.53786827 475.60842891 98.67397294 473.08203125 99.80859375 C472.37996048 100.14112656 471.67788971 100.47365936 470.95454407 100.81626892 C468.64608856 101.9001272 466.32520534 102.95260109 464 104 C463.21703552 104.35700989 462.43407104 104.71401978 461.62738037 105.08184814 C455.67031095 107.79464083 449.68229013 110.43436019 443.6875 113.0625 C441.79379035 113.89631728 439.90015546 114.73030438 438.0065918 115.56445312 C425.41342733 121.10353146 412.77986069 126.54450111 400.12149048 131.93261719 C390.37069569 136.08487149 380.70603789 140.38060808 371.09814453 144.85595703 C360.99587485 149.5288437 350.74001407 153.83539047 340.47802734 158.14282227 C332.9299162 161.31329376 325.43777309 164.57721815 318 168 C316.36030624 168.73904874 314.71969398 169.47606337 313.078125 170.2109375 C312.28712402 170.56551025 311.49612305 170.92008301 310.68115234 171.28540039 C309.87887207 171.64496826 309.0765918 172.00453613 308.25 172.375 C300.71258629 175.75337396 293.22479064 179.22111424 285.7734375 182.78515625 C283 184 283 184 281 184 C281 184.66 281 185.32 281 186 C344.69 186 408.38 186 474 186 C474 193.88539683 473.99008513 201.69704147 473.625 209.5625 C473.58101074 210.51390869 473.53702148 211.46531738 473.49169922 212.44555664 C473.15639906 219.10231601 472.58180096 225.70257443 471.8671875 232.32763672 C470.94250392 241.10057218 470.28704849 249.89182212 469.625 258.6875 C466.86432474 295.21408331 463.85923835 331.71617619 460.41661072 368.18495178 C460.28430897 369.58666465 460.15211765 370.98838795 460.02003479 372.39012146 C459.71199135 375.65880857 459.40256349 378.92733528 459.08959961 382.19555664 C458.45532292 388.88138294 457.8665864 395.56842313 457.32041931 402.26194763 C456.15598526 416.5236126 454.79008037 430.76126501 453.375 445 C453.14306216 447.34763976 452.91129062 449.69529595 452.6796875 452.04296875 C452.12169744 457.69550231 451.56169811 463.34783377 451 469 C450.28271729 469.17539307 449.56543457 469.35078613 448.82641602 469.53149414 C435.20302106 472.87320413 421.63384832 476.31771482 408.14282227 480.16235352 C397.63887968 483.13905681 387.07829489 485.89005166 376.51559448 488.64889526 C366.37813133 491.29835563 356.26603668 494.00817059 346.1875 496.875 C338.10985695 499.17158479 330.01871807 501.24309984 321.83203125 503.109375 C314.04873546 504.91833671 306.34901646 507.05130447 298.66015625 509.22265625 C290.51612397 511.5187633 282.37635741 513.68313901 274.12036133 515.54199219 C268.5832488 516.80532965 263.2104032 518.43289013 257.83203125 520.265625 C242.23546075 523.25457021 227.93401555 518.32937024 212.9375 514.3125 C209.33797367 513.36502649 205.7372055 512.42237975 202.1363678 511.47990417 C199.77876345 510.86225596 197.42169272 510.24256714 195.06517029 509.62080383 C186.28098554 507.30895606 177.46557409 505.1672318 168.62280273 503.09301758 C162.07743443 501.55535014 155.56931547 499.88066087 149.0625 498.1875 C147.7552983 497.84859968 146.44808777 497.50973342 145.14086914 497.17089844 C135.73167142 494.72790163 126.33203613 492.24873625 116.9375 489.75 C115.74455322 489.43313232 114.55160645 489.11626465 113.32250977 488.78979492 C107.40638877 487.20925955 101.50867647 485.58039528 95.625 483.8828125 C90.78951812 482.49287662 85.97112085 481.2251178 81.0625 480.125 C73.86339236 478.47697024 66.70987349 476.67162736 59.5625 474.8125 C58.54873291 474.55033691 57.53496582 474.28817383 56.49047852 474.01806641 C55.07400024 473.6475415 55.07400024 473.6475415 53.62890625 473.26953125 C52.78400635 473.04885986 51.93910645 472.82818848 51.06860352 472.60083008 C49 472 49 472 47 471 C46.42426817 467.90652416 45.9759749 464.87340791 45.59765625 461.75390625 C45.4744249 460.79596664 45.35119354 459.83802704 45.22422791 458.85105896 C44.82840364 455.75589423 44.44546998 452.65927866 44.0625 449.5625 C43.80874777 447.5708608 43.55419869 445.57932296 43.29882812 443.58789062 C42.64396749 438.45065749 42.00989948 433.31111948 41.38571167 428.17007446 C41.12907974 426.06087634 40.87007601 423.95196542 40.6086731 421.84335327 C38.63259521 405.86426981 37.17396434 389.88904819 36.06469727 373.8269043 C35.80946939 370.14376593 35.54297478 366.46155615 35.27539062 362.77929688 C35.10611163 360.38806741 34.93746826 357.99679284 34.76953125 355.60546875 C34.65240532 353.99106148 34.65240532 353.99106148 34.53291321 352.34403992 C34.02628166 344.88661638 33.91577661 337.47346034 34 330 C45.2743041 329.97684139 56.54860254 329.95906692 67.82292557 329.94818783 C73.05790293 329.94296672 78.29286403 329.93588304 83.52783203 329.92456055 C88.57877513 329.9137043 93.62970257 329.90771733 98.68065643 329.90512276 C100.60878496 329.90327346 102.53691261 329.89966231 104.46503448 329.89426994 C107.16323201 329.88702325 109.86136464 329.8860106 112.55957031 329.88647461 C113.35870346 329.88287933 114.15783661 329.87928406 114.98118591 329.87557983 C118.49481563 329.8821288 121.61974421 330.05601656 125 331 C126.09853993 342.35637634 127.15449491 353.69842813 127.65795898 365.09912109 C127.80061612 368.15191111 128.0202029 371.1386809 128.4609375 374.1640625 C129.26698937 379.89988085 129.63718321 385.66264317 130.0625 391.4375 C130.19881836 393.25024414 130.19881836 393.25024414 130.33789062 395.09960938 C130.56068231 398.06625653 130.78132212 401.03304725 131 404 C142.6545334 408.02655578 154.38803458 410.11594206 166.55517578 411.87939453 C173.32452981 412.87018761 180.0091422 414.12144146 186.70556641 415.52587891 C192.82309193 416.79000261 198.95538686 417.98342154 205.08276367 419.19873047 C209.69370037 420.11837334 214.29664338 421.0531125 218.8828125 422.08984375 C222.24120944 422.84705506 225.59696677 423.47063928 229 424 C233.34681451 424.69681759 237.60171104 425.54553419 241.8671875 426.6328125 C247.69213029 427.63564148 251.61524592 426.59422484 257 424.25 C264.19829482 421.22375639 271.45079394 419.01099358 279 417 C281.81441314 416.23606816 284.62637034 415.46342127 287.4375 414.6875 C288.56889404 414.37558716 288.56889404 414.37558716 289.72314453 414.05737305 C296.69211944 412.11897789 303.60392484 410.00724361 310.5168457 407.87890625 C316.39217218 406.07753416 322.27984271 404.3265077 328.18359375 402.62109375 C328.8829454 402.41902313 329.58229706 402.21695251 330.30284119 402.00875854 C333.76928892 401.00841402 337.23692208 400.0123535 340.70581055 399.02050781 C342.60327026 398.47475098 342.60327026 398.47475098 344.5390625 397.91796875 C345.66521973 397.59594482 346.79137695 397.2739209 347.95166016 396.94213867 C350.97622253 396.05809021 350.97622253 396.05809021 353.71630859 394.88012695 C356 394 356 394 359 394 C359.02014664 393.35934097 359.04029327 392.71868195 359.06105042 392.05860901 C359.62621047 374.64954214 360.65817021 357.30726223 361.9375 339.9375 C362.29937612 334.944189 362.65800458 329.9506487 363.015625 324.95703125 C363.10245041 323.7483136 363.18927582 322.53959595 363.2787323 321.29425049 C364.09092811 309.90256743 364.79182085 298.50544025 365.40405273 287.10131836 C365.47052002 285.91546143 365.5369873 284.72960449 365.60546875 283.5078125 C365.65856201 282.50379395 365.71165527 281.49977539 365.76635742 280.46533203 C366 278 366 278 367 275 C365.03686655 275.0077306 365.03686655 275.0077306 363.03407383 275.01561737 C331.58442291 275.1393978 300.13476645 275.26165931 268.68510288 275.38218227 C264.76850279 275.39719292 260.85190275 275.41221573 256.93530273 275.42724609 C256.15595725 275.43023671 255.37661177 275.43322732 254.57364976 275.43630856 C243.67471372 275.47815662 232.7757804 275.52065769 221.87684898 275.56369197 C203.0962909 275.63784603 184.31572829 275.71071436 165.53515625 275.78125 C164.44136181 275.78536243 164.44136181 275.78536243 163.32547051 275.78955793 C117.88361724 275.9601919 72.44221325 276.08298938 27 276 C26.94465088 275.38821396 26.88930176 274.77642792 26.83227539 274.14610291 C26.5759639 271.3148244 26.31923371 268.483584 26.0625 265.65234375 C25.97548828 264.69050171 25.88847656 263.72865967 25.79882812 262.7376709 C25.21868466 256.34400648 24.61737619 249.95266939 24 243.5625 C23.01266415 233.27789079 22.11212047 222.98642011 21.23754883 212.69165039 C21.0753691 210.85400242 20.90287348 209.01724305 20.72143555 207.18139648 C20.16822006 201.53527237 19.86666852 195.98446675 19.9375 190.3125 C19.94201172 189.59900391 19.94652344 188.88550781 19.95117188 188.15039062 C19.96269426 186.43355526 19.9806137 184.71676457 20 183 C32.24018394 176.63364502 44.77135016 171.03408442 57.42724609 165.54882812 C60.58723354 164.1789388 63.74528418 162.80473827 66.90252686 161.42854309 C69.59000516 160.25742794 72.2782467 159.08807353 74.96673584 157.91928101 C76.26214661 157.3561069 77.5574383 156.7926588 78.8526001 156.22891235 C84.57855569 153.73829823 90.30035101 151.25240046 96.109375 148.9609375 C101.91962322 146.66615353 107.60780874 144.10593753 113.3125 141.5625 C120.82664457 138.22836938 128.30785912 134.94445533 136.05859375 132.1953125 C138.59626351 131.16406822 140.96220945 130.02589123 143.3984375 128.78125 C150.19251409 125.33831006 157.19169842 122.37722609 164.1875 119.375 C165.52810806 118.79713771 166.86860352 118.21901411 168.20898438 117.640625 C172.97933319 115.58344722 177.7529746 113.53399573 182.52856445 111.48901367 C185.83449209 110.07099182 189.13681642 108.6450244 192.4375 107.21484375 C193.32917374 106.82851776 193.32917374 106.82851776 194.23886108 106.43438721 C196.15931177 105.60225531 198.07966262 104.76989334 200 103.9375 C200.98362518 103.51121811 200.98362518 103.51121811 201.98712158 103.07632446 C212.79277658 98.39330451 223.59495318 93.70231963 234.39395142 89.00396729 C235.25746531 88.62827732 236.12097919 88.25258736 237.01066017 87.86551285 C237.66714231 87.57989361 238.32362446 87.29427437 239 87 C214.22549389 85.97960526 189.46551656 85.79286134 164.67289853 85.69667697 C159.17839698 85.67443159 153.68391968 85.64723615 148.18943787 85.62062073 C137.83839644 85.57120407 127.48734119 85.52608153 117.13627332 85.48259836 C105.32923335 85.43278257 93.52221775 85.37803259 81.7152015 85.32291877 C57.47682385 85.20988469 33.23842272 85.10288242 9 85 C8.86321587 84.11010722 8.72643173 83.22021444 8.58550262 82.30335522 C8.40578163 81.13454972 8.22606064 79.96574423 8.04089355 78.76152039 C7.86285942 77.60350261 7.68482529 76.44548483 7.50139618 75.2523756 C7.11916522 72.77298168 6.73459404 70.29402779 6.34570312 67.81567383 C2.81070059 45.21581549 0 22.93872992 0 0 Z " fill="#FEFEFE" transform="translate(115,344)"/>
<path d="M0 0 C98.01 0 196.02 0 297 0 C297 7.34606418 296.81106389 14.30749262 296.0625 21.5625 C295.38407522 28.49868669 294.82337724 35.41323722 294.5 42.375 C294.1753807 49.12117935 293.44453921 55.73712047 292.5390625 62.43359375 C291.66079915 69.39423003 291.21062024 76.40161821 290.69750977 83.39672852 C290.32876394 88.32739808 289.82571091 93.12375445 289 98 C288.6523785 101.57898328 288.39244366 105.16425267 288.125 108.75 C287.53877071 116.373846 286.9225798 123.99374003 286.23828125 131.609375 C286.17227722 132.34549011 286.10627319 133.08160522 286.03826904 133.84002686 C285.77549144 136.76411634 285.51209726 139.68813585 285.24346924 142.61169434 C284.46188066 151.11965084 283.79189691 159.61829616 283.36473083 168.15234375 C283.13195033 172.57635779 282.67110312 176.92514496 282.0625 181.3125 C280.85384863 190.28718739 280.28279916 199.29516872 279.69750977 208.3293457 C279.62072998 209.49167725 279.5439502 210.65400879 279.46484375 211.8515625 C279.399021 212.89135254 279.33319824 213.93114258 279.26538086 215.00244141 C278.99634941 218.04123456 278.50685987 220.99289662 278 224 C277.8317756 225.79861843 277.68907772 227.59978376 277.5703125 229.40234375 C277.46299805 230.96094116 277.46299805 230.96094116 277.35351562 232.55102539 C277.27810547 233.66856201 277.20269531 234.78609863 277.125 235.9375 C276.31265498 247.46697437 275.2600152 258.95996699 274.11035156 270.46020508 C273.14076258 280.26156542 272.33354717 290.06767755 271.64648438 299.89282227 C271.53916992 301.38833618 271.53916992 301.38833618 271.4296875 302.9140625 C271.37022949 303.7798291 271.31077148 304.6455957 271.24951172 305.53759766 C271 308 271 308 270.50439453 310.43139648 C269.93008633 313.35603179 269.70121938 316.20999347 269.5 319.18359375 C269.4175 320.35857422 269.335 321.53355469 269.25 322.74414062 C269.1675 323.96294922 269.085 325.18175781 269 326.4375 C268.83597358 328.85304532 268.66939309 331.26841884 268.5 333.68359375 C268.4278125 334.75150146 268.355625 335.81940918 268.28125 336.91967773 C268 340 268 340 267.51147461 342.87817383 C266.89159482 346.66165971 266.59470589 350.44561919 266.31640625 354.265625 C266.1920632 355.89583378 266.06771403 357.5260421 265.94335938 359.15625 C265.75391085 361.68287722 265.56550456 364.20957928 265.37768555 366.73632812 C264.65425035 376.41790332 263.81279536 386.06390446 262.69970703 395.70889282 C261.97927552 402.0047046 261.48115437 408.30196205 261.0625 414.625 C260.35638784 424.65896134 259.51490728 434.67399148 258.5625 444.6875 C258.46766327 445.68689606 258.46766327 445.68689606 258.37091064 446.70648193 C257.78856436 452.83375356 257.19750254 458.96017833 256.60449219 465.08642578 C256.21239199 469.14065627 255.82331518 473.19516653 255.4375 477.25 C255.37410431 477.91599213 255.31070862 478.58198425 255.24539185 479.26815796 C254.26392534 489.63559579 253.47008068 500.00855428 252.77148438 510.39868164 C252.09642492 520.2058728 251.18489249 529.98258143 250.23587036 539.76611328 C249.50250522 547.34034904 248.80948201 554.89886516 248.4375 562.5 C248.14876703 568.22268749 247.56676934 573.8368724 246.79833984 579.51416016 C246.01640375 585.4537296 245.52870265 591.40325811 245.0625 597.375 C244.04783334 610.29036138 242.56201281 623.1407843 241 636 C238.84645256 636.71784915 236.69273628 637.4351228 234.53808594 638.1496582 C233.01171146 638.66104357 231.48794909 639.18047393 229.96972656 639.71557617 C223.08702654 642.11285559 216.04086467 643.89722414 208.99246216 645.72930908 C198.65094425 648.41879898 188.32069686 651.13078809 178.0625 654.125 C168.98369837 656.77436609 159.84150167 659.1499469 150.67211914 661.46533203 C144.04065355 663.15410589 137.50029518 665.03343999 130.96923828 667.07617188 C127.14365064 668.26643858 123.29917092 669.3711107 119.4375 670.4375 C118.68702393 670.64576416 117.93654785 670.85402832 117.16333008 671.06860352 C111.52653938 672.61722351 105.8641618 674.04324196 100.1875 675.4375 C92.49597435 677.32861514 84.88261338 679.42295205 77.27587891 681.62866211 C68.03366136 684.3006511 58.74273067 686.78304883 49.44921875 689.26953125 C44.34670115 690.63503671 39.25087703 692.02339371 34.15771484 693.42333984 C26.7633935 695.45389133 19.3646572 697.46755919 11.9375 699.375 C10.09478516 699.85066406 10.09478516 699.85066406 8.21484375 700.3359375 C5 701 5 701 0 701 C-0.33 670.64 -0.66 640.28 -1 609 C-2.98 609 -4.96 609 -7 609 C-7 608.67 -7 608.34 -7 608 C-6.40316406 607.98582031 -5.80632812 607.97164062 -5.19140625 607.95703125 C1.69852828 607.57823842 7.7957635 606.02195829 14.34033203 604.00463867 C19.13439879 602.53279439 23.92260961 601.23633873 28.8125 600.125 C36.64597413 598.33301031 44.45079609 596.43582345 52.25 594.5 C53.40991455 594.21527832 54.5698291 593.93055664 55.76489258 593.63720703 C62.62355732 591.92972435 69.36704949 589.99519969 76.11035156 587.87939453 C79.63760505 586.80596034 83.14748516 585.97216793 86.75 585.1875 C93.62804768 583.63136635 100.40579531 581.80586763 107.1875 579.875 C118.15248754 576.75666746 129.15940679 573.82319495 140.1875 570.9375 C150.59659214 568.213416 161.00136934 565.48199684 171.375 562.625 C177.61338722 560.91209493 183.85633765 559.22407539 190.125 557.625 C191.98511719 557.14933594 191.98511719 557.14933594 193.8828125 556.6640625 C197 556 197 556 201 556 C200.95875 554.72125 200.9175 553.4425 200.875 552.125 C200.875 547.30858749 201.31185477 542.59003275 201.875 537.8125 C202.67189497 531.04843855 203.36149137 524.28657097 203.9375 517.5 C204.01798584 516.55552002 204.09847168 515.61104004 204.18139648 514.63793945 C204.35696486 512.57245868 204.53215734 510.50694593 204.70703125 508.44140625 C205.27298622 501.79332182 205.85377644 495.14654382 206.4375 488.5 C206.53233673 487.41878876 206.53233673 487.41878876 206.62908936 486.31573486 C207.65258405 474.671497 208.74566241 463.0353395 209.90991211 451.40429688 C210.97562483 440.6397664 211.86369019 429.86194613 212.74740601 419.08117676 C212.98721782 416.15591877 213.22835364 413.23077343 213.4699707 410.30566406 C213.94085028 404.59981628 214.40833486 398.89369384 214.875 393.1875 C215.00039658 391.65647141 215.00039658 391.65647141 215.12832642 390.09451294 C216.14645185 377.65332407 217.14538552 365.21082787 218.11328125 352.765625 C218.20383789 351.60255325 218.29439453 350.43948151 218.38769531 349.24116516 C218.82560768 343.61110634 219.26102624 337.98086923 219.69287109 332.3503418 C219.85119046 330.30517218 220.00955405 328.26000599 220.16796875 326.21484375 C220.27242058 324.83676544 220.27242058 324.83676544 220.37898254 323.43084717 C220.4798542 322.13464447 220.4798542 322.13464447 220.58276367 320.81225586 C220.63953781 320.07180527 220.69631195 319.33135468 220.75480652 318.56846619 C221.09189936 315.03733008 221.56002528 311.51979773 222 308 C222.66 296.45 223.32 284.9 224 273 C160.31 273 96.62 273 31 273 C31 272.34 31 271.68 31 271 C35.60117992 268.80674136 40.20537321 266.61997555 44.81225586 264.4387207 C46.37328485 263.69855967 47.93353173 262.95674644 49.49291992 262.21313477 C57.93666094 258.18804061 66.34320684 254.38825208 75.11987305 251.13061523 C78.67317087 249.73574177 82.01118335 248.04571259 85.39941406 246.29492188 C90.61194357 243.69942277 96.01160099 241.51203288 101.375 239.25 C109.4805877 235.82536593 117.54105792 232.32525297 125.55859375 228.69921875 C135.27578187 224.30558813 145.04444789 220.03762601 154.83053589 215.80004883 C159.81063143 213.64282488 164.78796716 211.47924762 169.765625 209.31640625 C170.77733261 208.87688629 171.78904022 208.43736633 172.83140564 207.98452759 C182.64225119 203.72197496 192.45249954 199.45812617 202.25332642 195.1725769 C204.02725486 194.39763912 205.80180145 193.62411466 207.57699585 192.8520813 C210.04125962 191.78011527 212.50329336 190.70317928 214.96484375 189.625 C215.67948792 189.31541855 216.39413208 189.0058371 217.13043213 188.68687439 C219.10195007 187.81971127 221.05454056 186.92405326 223 186 C223.65428986 185.69030273 224.30857971 185.38060547 224.98269653 185.06152344 C227.85663524 183.58156931 229.74196896 182.43809036 231.40014648 179.62280273 C232.06096545 176.73343432 232.40436361 173.99409203 232.59765625 171.03515625 C232.67693359 169.90529297 232.75621094 168.77542969 232.83789062 167.61132812 C232.91201172 166.44021484 232.98613281 165.26910156 233.0625 164.0625 C233.21762707 161.74072212 233.37510231 159.4190997 233.53515625 157.09765625 C233.600979 156.07164307 233.66680176 155.04562988 233.73461914 153.98852539 C234.00411471 150.95366309 234.48588395 148.00184929 235 145 C235.17409957 142.50180931 235.31686439 140.00134252 235.4375 137.5 C235.79954881 130.69408461 236.31671093 123.91213323 236.9375 117.125 C237.01218506 116.30193359 237.08687012 115.47886719 237.16381836 114.63085938 C238.02270249 105.41082171 239.03048221 96.210419 240 87 C160.8 87 81.6 87 0 87 C0 58.29 0 29.58 0 0 Z " fill="#29A9DF" transform="translate(365,257)"/>
<path d="M0 0 C82.5 0 165 0 250 0 C250 90.75 250 181.5 250 275 C226.755625 275.165 203.51125 275.33 179.5625 275.5 C172.3960376 275.55220703 165.2295752 275.60441406 157.84594727 275.65820312 C151.87777146 275.70005821 145.90959626 275.74153409 139.94140625 275.78125 C139.15680377 275.78649374 138.37220129 275.79173748 137.56382298 275.79714012 C100.70918711 276.04169385 63.85527957 276.05545762 27 276 C26.94465088 275.38821396 26.88930176 274.77642792 26.83227539 274.14610291 C26.5759639 271.3148244 26.31923371 268.483584 26.0625 265.65234375 C25.97548828 264.69050171 25.88847656 263.72865967 25.79882812 262.7376709 C25.21868466 256.34400648 24.61737619 249.95266939 24 243.5625 C23.01266415 233.27789079 22.11212047 222.98642011 21.23754883 212.69165039 C21.0753691 210.85400242 20.90287348 209.01724305 20.72143555 207.18139648 C20.16822006 201.53527237 19.86666852 195.98446675 19.9375 190.3125 C19.94201172 189.59900391 19.94652344 188.88550781 19.95117188 188.15039062 C19.96269426 186.43355526 19.9806137 184.71676457 20 183 C32.24018394 176.63364502 44.77135016 171.03408442 57.42724609 165.54882812 C60.58723354 164.1789388 63.74528418 162.80473827 66.90252686 161.42854309 C69.59000516 160.25742794 72.2782467 159.08807353 74.96673584 157.91928101 C76.26214661 157.3561069 77.5574383 156.7926588 78.8526001 156.22891235 C84.57855569 153.73829823 90.30035101 151.25240046 96.109375 148.9609375 C101.91962322 146.66615353 107.60780874 144.10593753 113.3125 141.5625 C120.82664457 138.22836938 128.30785912 134.94445533 136.05859375 132.1953125 C138.59626351 131.16406822 140.96220945 130.02589123 143.3984375 128.78125 C150.19251409 125.33831006 157.19169842 122.37722609 164.1875 119.375 C165.52810806 118.79713771 166.86860352 118.21901411 168.20898438 117.640625 C172.97933319 115.58344722 177.7529746 113.53399573 182.52856445 111.48901367 C185.83449209 110.07099182 189.13681642 108.6450244 192.4375 107.21484375 C193.32917374 106.82851776 193.32917374 106.82851776 194.23886108 106.43438721 C196.15931177 105.60225531 198.07966262 104.76989334 200 103.9375 C200.98362518 103.51121811 200.98362518 103.51121811 201.98712158 103.07632446 C212.79277658 98.39330451 223.59495318 93.70231963 234.39395142 89.00396729 C235.25746531 88.62827732 236.12097919 88.25258736 237.01066017 87.86551285 C237.66714231 87.57989361 238.32362446 87.29427437 239 87 C214.22549389 85.97960526 189.46551656 85.79286134 164.67289853 85.69667697 C159.17839698 85.67443159 153.68391968 85.64723615 148.18943787 85.62062073 C137.83839644 85.57120407 127.48734119 85.52608153 117.13627332 85.48259836 C105.32923335 85.43278257 93.52221775 85.37803259 81.7152015 85.32291877 C57.47682385 85.20988469 33.23842272 85.10288242 9 85 C8.86321587 84.11010722 8.72643173 83.22021444 8.58550262 82.30335522 C8.40578163 81.13454972 8.22606064 79.96574423 8.04089355 78.76152039 C7.86285942 77.60350261 7.68482529 76.44548483 7.50139618 75.2523756 C7.11916522 72.77298168 6.73459404 70.29402779 6.34570312 67.81567383 C2.81070059 45.21581549 0 22.93872992 0 0 Z " fill="#CECECE" transform="translate(115,344)"/>
<path d="M0 0 C11.2743041 -0.02315861 22.54860254 -0.04093308 33.82292557 -0.05181217 C39.05790293 -0.05703328 44.29286403 -0.06411696 49.52783203 -0.07543945 C54.57877513 -0.0862957 59.62970257 -0.09228267 64.68065643 -0.09487724 C66.60878496 -0.09672654 68.53691261 -0.10033769 70.46503448 -0.10573006 C73.16323201 -0.11297675 75.86136464 -0.1139894 78.55957031 -0.11352539 C79.35870346 -0.11712067 80.15783661 -0.12071594 80.98118591 -0.12442017 C84.49481563 -0.1178712 87.61974421 0.05601656 91 1 C92.09853993 12.35637634 93.15449491 23.69842813 93.65795898 35.09912109 C93.80061612 38.15191111 94.0202029 41.1386809 94.4609375 44.1640625 C95.26698937 49.89988085 95.63718321 55.66264317 96.0625 61.4375 C96.19881836 63.25024414 96.19881836 63.25024414 96.33789062 65.09960938 C96.56068231 68.06625653 96.78132212 71.03304725 97 74 C108.6545334 78.02655578 120.38803458 80.11594206 132.55517578 81.87939453 C139.32452981 82.87018761 146.0091422 84.12144146 152.70556641 85.52587891 C158.82309193 86.79000261 164.95538686 87.98342154 171.08276367 89.19873047 C175.70142387 90.11991378 180.31214355 91.05641741 184.90625 92.09375 C188.13359674 92.82115717 191.35437379 93.43098709 194.625 93.9375 C199.40612047 94.70496128 204.15323186 95.60460267 208.8984375 96.56640625 C209.58510498 96.70469849 210.27177246 96.84299072 210.97924805 96.98547363 C212.65302253 97.32270496 214.32653863 97.66121829 216 98 C216.0154612 99.41915207 216.0154612 99.41915207 216.03123474 100.86697388 C216.12954062 109.8395163 216.23232136 118.81199814 216.33933926 127.78444099 C216.39420111 132.3958232 216.44755663 137.00721201 216.49731445 141.61865234 C216.54550709 146.07965738 216.59785913 150.54059696 216.65294075 155.00152206 C216.67311891 156.69249691 216.69186789 158.38348952 216.70907402 160.07449722 C216.62250177 175.09306313 216.62250177 175.09306313 218 190 C218.66 190.33 219.32 190.66 220 191 C205.84453507 192.5764673 192.45621895 187.93353714 178.9375 184.3125 C175.33797367 183.36502649 171.7372055 182.42237975 168.1363678 181.47990417 C165.77876345 180.86225596 163.42169272 180.24256714 161.06517029 179.62080383 C152.28098554 177.30895606 143.46557409 175.1672318 134.62280273 173.09301758 C128.07743443 171.55535014 121.56931547 169.88066087 115.0625 168.1875 C113.7552983 167.84859968 112.44808777 167.50973342 111.14086914 167.17089844 C101.73167142 164.72790163 92.33203613 162.24873625 82.9375 159.75 C81.14807983 159.27469849 81.14807983 159.27469849 79.32250977 158.78979492 C73.40638877 157.20925955 67.50867647 155.58039528 61.625 153.8828125 C56.78951812 152.49287662 51.97112085 151.2251178 47.0625 150.125 C39.86339236 148.47697024 32.70987349 146.67162736 25.5625 144.8125 C24.54873291 144.55033691 23.53496582 144.28817383 22.49047852 144.01806641 C21.54615967 143.7710498 20.60184082 143.5240332 19.62890625 143.26953125 C18.78400635 143.04885986 17.93910645 142.82818848 17.06860352 142.60083008 C15 142 15 142 13 141 C12.42426817 137.90652416 11.9759749 134.87340791 11.59765625 131.75390625 C11.4744249 130.79596664 11.35119354 129.83802704 11.22422791 128.85105896 C10.82840364 125.75589423 10.44546998 122.65927866 10.0625 119.5625 C9.80874777 117.5708608 9.55419869 115.57932296 9.29882812 113.58789062 C8.64396749 108.45065749 8.00989948 103.31111948 7.38571167 98.17007446 C7.12907974 96.06087634 6.87007601 93.95196542 6.6086731 91.84335327 C4.63259521 75.86426981 3.17396434 59.88904819 2.06469727 43.8269043 C1.80946939 40.14376593 1.54297478 36.46155615 1.27539062 32.77929688 C1.10611163 30.38806741 0.93746826 27.99679284 0.76953125 25.60546875 C0.6914473 24.52919724 0.61336334 23.45292572 0.53291321 22.34403992 C0.02628166 14.88661638 -0.08422339 7.47346034 0 0 Z " fill="#CDCECE" transform="translate(149,674)"/>
<path d="M0 0 C45.54 0 91.08 0 138 0 C138 13.86 138 27.72 138 42 C105.33 42 72.66 42 39 42 C39 46.95 39 51.9 39 57 C40.1665361 56.99777939 41.3330722 56.99555878 42.53495789 56.99327087 C53.5263595 56.97300261 64.51775733 56.95801006 75.50917339 56.94818783 C81.16001349 56.94296839 86.81083851 56.93588772 92.46166992 56.92456055 C97.9146165 56.91369839 103.36754858 56.90771608 108.82050514 56.90512276 C110.90131674 56.90327452 112.98212754 56.89966544 115.06293297 56.89426994 C117.97646173 56.8870154 120.88993046 56.88601093 123.8034668 56.88647461 C124.66445984 56.88287933 125.52545288 56.87928406 126.41253662 56.87557983 C130.41043042 56.88246845 134.09811245 57.00101708 138 58 C138.02312328 68.67419698 138.04091501 79.34838806 138.05181217 90.02260494 C138.05704103 94.97853922 138.06413874 99.93445642 138.07543945 104.89038086 C138.08626822 109.66898836 138.09227681 114.44757938 138.09487724 119.2261982 C138.09673151 121.05353619 138.10035216 122.88087324 138.10573006 124.70820427 C138.11294036 127.25853329 138.11399095 129.80879337 138.11352539 132.35913086 C138.11712067 133.12229614 138.12071594 133.88546143 138.12442017 134.67175293 C138.11405216 139.88594784 138.11405216 139.88594784 137 141 C135.22839682 141.09634459 133.45291592 141.12187481 131.67869568 141.12025452 C130.52458191 141.12162918 129.37046814 141.12300385 128.18138123 141.12442017 C126.90392532 141.12082489 125.62646942 141.11722961 124.31030273 141.11352539 C122.96041872 141.11324352 121.61053456 141.11340125 120.26065063 141.1139679 C116.58519392 141.11425587 112.90976957 141.10835916 109.2343204 141.10139394 C105.39726851 141.09516038 101.56021596 141.0945566 97.72315979 141.09336853 C90.45228782 141.09025522 83.18143081 141.08204183 75.91056544 141.07201904 C67.63500648 141.0608579 59.35944682 141.05534745 51.08388221 141.05032361 C34.05591281 141.03985922 17.02795798 141.02225978 0 141 C-0.16535383 139.40957434 -0.32890352 137.81896103 -0.49169922 136.22827148 C-0.58297089 135.34251938 -0.67424255 134.45676727 -0.76828003 133.54417419 C-1.05681095 130.37624306 -1.13256359 127.24299021 -1.125 124.0625 C-1.12757813 122.98097656 -1.13015625 121.89945312 -1.1328125 120.78515625 C-0.95948653 115.84536619 -0.4475028 110.92253075 0 106 C31.02 106 62.04 106 94 106 C94 99.73 94 93.46 94 87 C91.18799072 87.00523682 88.37598145 87.01047363 85.47875977 87.01586914 C76.21075344 87.03240374 66.94274649 87.0434707 57.67472935 87.05181217 C52.05292038 87.05704136 46.43112647 87.06413966 40.80932617 87.07543945 C35.38881723 87.08626706 29.9683228 87.09227656 24.54780388 87.09487724 C22.47485055 87.09673172 20.40189806 87.10035277 18.32895088 87.10573006 C15.43616107 87.1129388 12.54343204 87.11399101 9.65063477 87.11352539 C8.78461136 87.11712067 7.91858795 87.12071594 7.02632141 87.12442017 C1.11405216 87.11405216 1.11405216 87.11405216 0 86 C-0.09513077 83.32208277 -0.12553972 80.67014636 -0.11352539 77.99194336 C-0.11364593 77.13937486 -0.11376646 76.28680635 -0.11389065 75.40840244 C-0.11314141 72.63552344 -0.10551268 69.8627108 -0.09765625 67.08984375 C-0.09618687 65.38317904 -0.09516613 63.67651388 -0.09460449 61.96984863 C-0.08935121 55.62572557 -0.07539013 49.28161214 -0.0625 42.9375 C-0.041875 28.768125 -0.02125 14.59875 0 0 Z " fill="#000000" transform="translate(446,1)"/>
<path d="M0 0 C45.54 0 91.08 0 138 0 C138 13.86 138 27.72 138 42 C105.33 42 72.66 42 39 42 C39 46.62 39 51.24 39 56 C40.5778125 55.99476318 42.155625 55.98952637 43.78125 55.98413086 C49.85757843 55.96548985 55.93390462 55.95436169 62.01025391 55.94506836 C64.59847442 55.94015863 67.18669238 55.93343231 69.77490234 55.92456055 C92.54378517 55.84869402 115.22163841 56.43054096 138 57 C138 84.39 138 111.78 138 140 C92.46 140 46.92 140 0 140 C0 128.78 0 117.56 0 106 C9.10410589 105.82943127 18.20822589 105.66115336 27.3125 105.5 C27.98329716 105.48812275 28.65409431 105.4762455 29.34521866 105.46400833 C50.89863729 105.08427612 72.44309672 104.86423224 94 105 C94.33 98.73 94.66 92.46 95 86 C63.65 86 32.3 86 0 86 C0 57.62 0 29.24 0 0 Z " fill="#000000" transform="translate(295,1)"/>
<path d="M0 0 C88.11 0 176.22 0 267 0 C260.92690678 103.24258475 260.92690678 103.24258475 259 119 C247.95114388 122.85228317 236.83165935 126.22069659 225.54760742 129.31591797 C217.50183251 131.53852124 209.55849595 134.00605585 201.61962891 136.58129883 C195.31709988 138.61424241 188.99849148 140.38283995 182.5859375 142.0390625 C172.9163012 144.63027223 163.38983177 147.72714889 154.0390625 151.30078125 C152 152 152 152 150 152 C150 102.17 150 52.34 150 1 C100.5 1 51 1 0 1 C0 0.67 0 0.34 0 0 Z " fill="#2AA9DE" transform="translate(215,619)"/>
<path d="M0 0 C44.88 0 89.76 0 136 0 C136 14.52 136 29.04 136 44 C105.31 44 74.62 44 43 44 C43 63.8 43 83.6 43 104 C73.69 104 104.38 104 136 104 C136 115.88 136 127.76 136 140 C91.12 140 46.24 140 0 140 C0 93.8 0 47.6 0 0 Z " fill="#000000" transform="translate(145,1)"/>
</svg>
