<?xml version="1.0" encoding="UTF-8"?>
<svg version="1.1" xmlns="http://www.w3.org/2000/svg" width="1600" height="1600">
<path d="M0 0 C1.1789427 -0.00066278 1.1789427 -0.00066278 2.38170242 -0.00133896 C28.35913858 -0.00898129 54.14276792 0.53091102 80 3.25 C80.81789001 3.33485657 81.63578003 3.41971313 82.47845459 3.50714111 C122.47747442 7.69418154 161.9210082 14.80277505 201 24.25 C201.66376648 24.40901794 202.32753296 24.56803589 203.01141357 24.73187256 C240.26538527 33.66571591 276.78901814 46.20517493 312 61.25 C312.61687683 61.51319031 313.23375366 61.77638062 313.86932373 62.04754639 C322.3048729 65.65491826 330.67325972 69.39861036 339 73.25 C340.06395996 73.74209961 341.12791992 74.23419922 342.22412109 74.74121094 C356.18679434 81.23950883 369.83440959 88.19100254 383.26855469 95.72021484 C386.03056102 97.26711614 388.80002672 98.80001587 391.5703125 100.33203125 C431.78130301 122.68420274 469.60143909 148.63291378 505.1796875 177.76171875 C506.77261865 179.06409379 508.3702952 180.36066032 509.96875 181.65625 C520.81960309 190.46458957 531.39144348 199.5538077 541.60644531 209.09204102 C543.72216447 211.06548834 545.84634061 213.02856567 547.98461914 214.97753906 C555.5544642 221.88642058 562.89849855 228.99163918 570.13183594 236.25146484 C571.8914348 238.01648544 573.65640397 239.77601133 575.421875 241.53515625 C580.61561382 246.72584469 585.73925551 251.91818798 590.50537109 257.51025391 C593.03161922 260.45080342 595.71545951 263.24302081 598.375 266.0625 C603.02189776 271.02838703 607.44295448 276.10250908 611.6953125 281.4140625 C613.87891644 284.10100566 616.11902301 286.72365029 618.38769531 289.33837891 C624.01914559 295.8303375 629.40042918 302.46783169 634.56298828 309.34033203 C636.18963846 311.5020136 637.82737024 313.65510033 639.46484375 315.80859375 C653.08612399 333.77906235 665.9140397 352.21323703 678 371.25 C678.5347998 372.09143555 679.06959961 372.93287109 679.62060547 373.79980469 C688.20777368 387.36283576 696.24548778 401.19608163 704 415.25 C704.56332031 416.26690918 705.12664062 417.28381836 705.70703125 418.33154297 C727.98527134 458.66999292 746.13129465 500.65793368 761 544.25 C761.40234863 545.42030762 761.80469727 546.59061523 762.21923828 547.79638672 C774.68735663 584.53174709 783.51660695 623.0222638 790 661.25 C790.11583435 661.92925537 790.2316687 662.60851074 790.35101318 663.30834961 C793.14725504 679.78806857 795.35149256 696.32448388 797.1875 712.9375 C797.26640472 713.63914276 797.34530945 714.34078552 797.42660522 715.06369019 C798.02559078 720.45297327 798.53615766 725.84746342 799 731.25 C799.08827057 732.27703033 799.17654114 733.30406067 799.26748657 734.36221313 C800.99872668 755.25976578 801.36460231 776.06211844 801.31805801 797.01910782 C801.31241003 799.60367139 801.30959433 802.18822838 801.30697632 804.77279663 C801.27093573 829.25680242 800.94325917 853.60442537 798.25 877.96466064 C797.98817552 880.35809182 797.74095474 882.75272609 797.49609375 885.14794922 C793.27207417 926.05513083 785.6484484 966.23917128 775.54693604 1006.08502197 C775.04809669 1008.05961524 774.55753996 1010.03629623 774.06787109 1012.01318359 C756.98871722 1080.81777493 727.52084095 1147.62292523 691 1208.25 C690.41476562 1209.22936523 689.82953125 1210.20873047 689.2265625 1211.21777344 C681.50239848 1224.14056969 673.51956276 1236.83685705 665 1249.25 C664.46439453 1250.03407227 663.92878906 1250.81814453 663.37695312 1251.62597656 C654.33685714 1264.82747029 644.80072661 1277.6054301 635 1290.25 C634.47245117 1290.93352539 633.94490234 1291.61705078 633.40136719 1292.32128906 C627.64929266 1299.76806903 621.71816234 1307.02969449 615.6015625 1314.1796875 C613.25742299 1316.92734045 611.00116684 1319.73800228 608.75 1322.5625 C604.25627715 1328.09448372 599.40140723 1333.25694839 594.49121094 1338.41723633 C593.8830957 1339.05685303 593.27498047 1339.69646973 592.6484375 1340.35546875 C592.11395996 1340.91387451 591.57948242 1341.47228027 591.02880859 1342.04760742 C589.23536011 1343.99450258 587.5047003 1345.97765682 585.77563477 1347.98144531 C581.99922267 1352.31009746 578.00797226 1356.38652703 573.94140625 1360.44140625 C573.1934227 1361.19034653 572.44543915 1361.9392868 571.67478943 1362.71092224 C570.10367536 1364.28271225 568.53131608 1365.85325849 566.95776367 1367.42260742 C564.56900154 1369.80601304 562.18562554 1372.19471068 559.80273438 1374.58398438 C558.2659455 1376.12011237 556.7288464 1377.65593009 555.19140625 1379.19140625 C554.48907364 1379.89576309 553.78674103 1380.60011993 553.06312561 1381.32582092 C549.08585636 1385.28458616 545.01207227 1389.07217828 540.75689697 1392.73121643 C538.17246856 1394.96537556 535.68729688 1397.29651787 533.1875 1399.625 C528.53961458 1403.9187538 523.75583652 1407.9853184 518.82421875 1411.953125 C516.3378223 1413.97525655 513.89732485 1416.0414807 511.46826172 1418.13183594 C503.98577919 1424.55718563 496.21308119 1430.55755056 488.3359375 1436.48925781 C485.89648079 1438.3280289 483.46374009 1440.17546269 481.03125 1442.0234375 C471.47246435 1449.26419007 461.82191558 1456.3100414 451.86621094 1462.99560547 C450.04392713 1464.22047389 448.22856939 1465.45505594 446.4140625 1466.69140625 C429.75902931 1477.9822622 412.49643459 1488.32439248 395 1498.25 C394.29407715 1498.65250977 393.5881543 1499.05501953 392.86083984 1499.46972656 C315.00562002 1543.76697422 230.30486624 1573.53419116 88.3125 1596.4375 C87.61085724 1596.51640472 86.90921448 1596.59530945 86.18630981 1596.67660522 C80.79702673 1597.27559078 75.40253658 1597.78615766 70 1598.25 C68.97296967 1598.33827057 67.94593933 1598.42654114 66.88778687 1598.51748657 C45.99016674 1600.24873227 25.1877472 1600.6146038 4.23069 1600.56805801 C1.64652952 1600.56241046 -0.93762439 1600.55959449 -3.52178955 1600.55697632 C-28.00627223 1600.52092682 -52.37143842 1600.22628628 -76.73034668 1597.50323486 C-79.1075568 1597.23799943 -81.48577791 1596.98356017 -83.86425781 1596.72998047 C-121.9475332 1592.61784392 -159.53254591 1586.02576677 -196.71020508 1576.81707764 C-198.94730776 1576.26304946 -201.18551424 1575.71366169 -203.42382812 1575.16455078 C-225.67400068 1569.67759494 -247.39858732 1562.89041613 -269 1555.25 C-270.04347595 1554.88101593 -270.04347595 1554.88101593 -271.10803223 1554.50457764 C-311.65005375 1540.11704299 -351.38787049 1522.40341405 -388.53759766 1500.67285156 C-391.66692441 1498.86463063 -394.83565514 1497.13508043 -398.01049805 1495.40844727 C-429.93423981 1478.00403948 -460.3865419 1456.62764842 -489 1434.25 C-490.13902648 1433.3694081 -491.27835756 1432.48921007 -492.41796875 1431.609375 C-499.08845694 1426.43865549 -505.58822432 1421.11280763 -511.96508789 1415.58374023 C-515.37914685 1412.62520814 -518.8409116 1409.7531489 -522.375 1406.9375 C-528.43547683 1402.01949892 -534.05923107 1396.66036758 -539.71484375 1391.2890625 C-542.98140276 1388.18781916 -546.30428928 1385.15488516 -549.640625 1382.12890625 C-555.95744836 1376.37163832 -562.0246529 1370.37764874 -568.05639648 1364.32397461 C-569.82487219 1362.55008997 -571.59870044 1360.78168223 -573.37304688 1359.01367188 C-578.58368398 1353.80608368 -583.7263766 1348.59819877 -588.50756836 1342.98754883 C-591.03283917 1340.04752718 -593.71618572 1337.25623378 -596.375 1334.4375 C-601.04360508 1329.44800337 -605.49127671 1324.35076046 -609.765625 1319.015625 C-611.79939691 1316.49829893 -613.87601035 1314.02942796 -615.97900391 1311.5703125 C-651.34971717 1270.19932084 -681.0717353 1224.02086344 -707 1176.25 C-707.51369141 1175.30382813 -708.02738281 1174.35765625 -708.55664062 1173.3828125 C-737.86763503 1119.05023751 -760.41429731 1060.22709307 -775 1000.25 C-775.17533264 999.53275757 -775.35066528 998.81551514 -775.53131104 998.07653809 C-784.87658615 959.73795973 -792.10797662 920.72737568 -795.79425049 881.41687012 C-796.00420246 879.20574137 -796.22582982 876.99599076 -796.44873047 874.78613281 C-801.3409167 825.35625969 -801.35778975 773.84837162 -796.22784424 724.44793701 C-795.99945071 722.24470122 -795.7800047 720.04071265 -795.56201172 717.83642578 C-789.59086703 658.22055714 -777.06307736 599.04359925 -758 542.25 C-757.77677063 541.5824469 -757.55354126 540.9148938 -757.32354736 540.22711182 C-750.49035466 519.83075603 -742.61993671 499.95427371 -734 480.25 C-733.32831787 478.71182617 -733.32831787 478.71182617 -732.64306641 477.14257812 C-720.82429335 450.28541966 -707.70301694 423.83553469 -692.49609375 398.73388672 C-691.10879028 396.43061886 -689.75037411 394.11381987 -688.40625 391.78515625 C-667.71741923 355.94944255 -643.4860686 321.59135967 -616.51171875 290.1953125 C-614.12468504 287.39620921 -611.80639849 284.55314909 -609.5 281.6875 C-605.44174232 276.69831582 -601.15484434 271.97329385 -596.7734375 267.26953125 C-594.6627814 264.99408266 -592.61188183 262.67304398 -590.57421875 260.33203125 C-581.01499841 249.36742417 -570.83194613 238.98306824 -560.5625 228.6875 C-559.63945068 227.7598584 -558.71640137 226.8322168 -557.76538086 225.87646484 C-553.24714128 221.3684429 -548.67843281 216.99504794 -543.83422852 212.83911133 C-540.87051994 210.27145804 -538.03948483 207.56522555 -535.1875 204.875 C-530.24385388 200.24853326 -525.1909794 195.85355546 -519.90234375 191.62109375 C-516.40478063 188.76373061 -513.01974872 185.7904779 -509.625 182.8125 C-503.57912962 177.53702592 -497.37600847 172.55223021 -490.95849609 167.73144531 C-488.65503969 165.98906518 -486.36851475 164.22552994 -484.08203125 162.4609375 C-474.28271787 154.91325501 -464.41985131 147.54983207 -454.13427734 140.67773438 C-451.77755028 139.10119127 -449.42989327 137.5115874 -447.08203125 135.921875 C-418.5746375 116.68800298 -388.98478745 99.4683918 -358.31542969 83.93554688 C-355.36997649 82.43809408 -352.43692368 80.91970562 -349.5078125 79.390625 C-275.17979365 40.91378524 -192.23139831 18.81367057 -69.25 2.5625 C-68.56914337 2.50147095 -67.88828674 2.44044189 -67.1867981 2.37756348 C-62.46055595 1.95985512 -57.73232602 1.58984665 -53 1.25 C-52.33718018 1.20087463 -51.67436035 1.15174927 -50.99145508 1.10113525 C-34.02467141 -0.11172229 -17.00086145 0.0043839 0 0 Z " fill="#F05133" transform="translate(799,-0.25)"/>
<path d="M0 0 C10.87994136 7.88670213 20.13177266 18.50511489 29.59672481 27.97162831 C31.41507351 29.7866739 33.23363373 31.60150762 35.0523864 33.41614842 C39.51395164 37.86843913 43.9728595 42.32338225 48.43092943 46.77917248 C53.77491407 52.12018177 59.12176017 57.4583231 64.46862249 62.79645127 C77.38449363 75.69153723 90.29523147 88.59175759 103.2051267 101.49282587 C109.31454952 107.59803592 115.42447618 113.70274163 121.53441781 119.80743245 C142.45931101 140.71444553 163.38276286 161.62290012 184.30243903 182.53513348 C185.61419282 183.84641251 186.92594717 185.15769098 188.23770209 186.46896888 C188.88818794 187.11921835 189.53867379 187.76946782 190.20887133 188.43942182 C193.50435322 191.73370256 196.79984226 195.02797614 200.09533626 198.32224476 C200.74932287 198.97599122 201.40330948 199.62973768 202.07711386 200.30329464 C223.29546886 221.51375134 244.52158473 242.71641928 265.75222548 263.91457804 C288.21267268 286.34072446 310.66581551 308.77415891 333.11076558 331.21581578 C335.57459645 333.67922912 338.03845833 336.14261145 340.50234348 338.6059705 C341.10899272 339.21249656 341.71564197 339.81902261 342.34067453 340.44392824 C352.09861141 350.19953419 361.86319316 359.94846277 371.630201 369.69498618 C381.44506775 379.48959409 391.25252359 389.2915739 401.05251243 399.10106824 C406.87249592 404.92626533 412.69795614 410.74585576 418.53147631 416.55749745 C422.88898241 420.89989502 427.23594446 425.25270515 431.57893047 429.60962214 C433.33567974 431.3687549 435.09581158 433.12451758 436.85966452 434.87652753 C457.10014935 454.98951258 457.10014935 454.98951258 461.61218196 468.69675648 C462.19612727 470.42732289 462.19612727 470.42732289 462.79186946 472.19285023 C467.52885455 487.5586903 465.35269494 504.82252551 458.73718196 519.25925648 C456.14328034 524.09930522 453.2958587 528.31646173 449.69413692 532.47461903 C449.21469385 533.03383207 448.73525077 533.59304511 448.24127913 534.169204 C443.21770819 539.96379014 437.86258042 545.40880816 432.42590266 550.8134557 C431.3432576 551.89717779 430.26104659 552.98133366 429.17922908 554.06588185 C426.28107845 556.96881443 423.37682472 559.86556509 420.47117192 562.76098597 C417.41133943 565.81193329 414.35688241 568.86825438 411.30168086 571.92383778 C406.17868805 577.04589902 401.05186696 582.16410206 395.9224847 587.27976429 C390.00975375 593.17673734 384.10229877 599.07895375 378.19780791 604.98417664 C371.87828819 611.30437374 365.55496253 617.62075251 359.23051745 623.93602049 C357.42100787 625.74340875 355.61220074 627.55149742 353.80355197 629.35974705 C350.95517645 632.20711178 348.10424166 635.05189032 345.25137645 637.89475644 C344.21054992 638.93268456 343.17054233 639.97143473 342.13145572 641.0111047 C340.70301524 642.44004327 339.27115953 643.86556528 337.83918697 645.29096425 C337.04229614 646.08617922 336.24540532 646.8813942 335.4243663 647.7007066 C333.30411231 649.71946486 331.1577444 651.64224341 328.94292003 653.55309784 C324.55688487 657.3650899 320.44492145 661.41214314 316.34336787 665.52608693 C315.53701162 666.33088319 314.73065537 667.13567945 313.89986408 667.96486348 C311.21622754 670.64453231 308.53615464 673.32773612 305.85607845 676.01096547 C303.92587569 677.94036209 301.99492918 679.86901378 300.06402522 681.79770863 C295.37496068 686.48233965 290.68858768 691.16965418 286.00319206 695.85795444 C282.19330622 699.67010382 278.38243918 703.48126975 274.57087833 707.29174435 C274.02723714 707.8352323 273.48359596 708.37872025 272.9234808 708.93867754 C271.81888642 710.04295218 270.7142898 711.14722458 269.60969097 712.25149477 C259.26562729 722.59271075 248.92462409 732.93698277 238.58467425 743.28231186 C229.7232637 752.1481898 220.85923467 761.0114427 211.99328548 769.87278187 C201.68355222 780.17715685 191.37545185 790.48316081 181.06993091 800.7917487 C179.96984597 801.89215217 178.86975895 802.99255356 177.76966983 804.09295285 C177.22848499 804.63429196 176.68730016 805.17563107 176.12971578 805.7333744 C172.3261876 809.53776397 168.52150448 813.34099612 164.71636707 817.14377606 C160.07566934 821.78166166 155.43677297 826.42134016 150.80013715 831.06328671 C148.43697476 833.42906708 146.07277275 835.79378217 143.70691043 838.15686429 C141.13695346 840.72407996 138.57011046 843.2943703 136.00401241 845.8654424 C135.26334244 846.60388164 134.52267247 847.34232088 133.75955796 848.10313708 C129.78078315 852.09683587 125.99092485 856.19224936 122.3085779 860.46042317 C120.2365302 862.83237051 118.05385351 865.07458413 115.83135921 867.30552113 C114.46505618 868.68038937 114.46505618 868.68038937 113.07115108 870.08303273 C112.08456037 871.07086822 111.09790984 872.05864396 110.1112054 873.04636586 C109.05395413 874.10825607 107.99689684 875.17033944 106.94001704 876.23259938 C104.08898575 879.09664903 101.23471573 881.95744827 98.37940055 884.81722653 C96.59033096 886.60924274 94.80184338 888.40183788 93.01352626 890.19460499 C87.40254716 895.81922834 81.78959095 901.44186739 76.17372328 907.06160986 C69.71934249 913.52047039 63.27155333 919.98581665 56.82943064 926.4569031 C51.82897632 931.47904808 46.82269993 936.49534135 41.81205517 941.50731909 C38.82860429 944.49181228 35.84757488 947.47862698 32.87261134 950.47158253 C30.0720662 953.2887378 27.26428487 956.0984831 24.45107013 958.90298474 C23.42747108 959.92582042 22.40636964 960.95116357 21.38815433 961.97935879 C5.637513 977.87512664 -10.98041736 988.42123473 -33.82531804 988.63425648 C-49.02137121 988.47764227 -63.27744084 984.18752556 -74.57185811 973.62767708 C-75.07439412 973.15819689 -75.57693013 972.6887167 -76.09469451 972.20500984 C-83.99769741 964.75975223 -91.63902789 957.03868358 -99.31817693 949.36452687 C-101.13341944 947.55402308 -102.9488683 945.74372616 -104.76450437 943.93361706 C-109.21063562 939.50020638 -113.65412904 935.06416076 -118.09676869 930.62725153 C-123.42399068 925.30713122 -128.75403547 919.98984221 -134.08404975 914.67251966 C-148.17882685 900.61090829 -162.26707092 886.54275737 -176.35448264 872.47376775 C-178.78773567 870.04372928 -181.2210514 867.61375358 -183.65437054 865.1837813 C-206.95590599 841.91429312 -230.25524218 818.64260417 -253.54937428 795.36570466 C-258.79610493 790.12291075 -264.04287318 784.88015448 -269.28967351 779.63743031 C-269.94146874 778.98613674 -270.59326398 778.33484318 -271.26481058 777.66381344 C-292.41159109 756.53346182 -313.56936904 735.41416539 -334.73334914 714.30104178 C-356.51355927 692.5730734 -378.28401458 670.83538097 -400.0417503 649.08490617 C-403.11546493 646.01222006 -406.18928342 642.93963787 -409.26316136 639.86711514 C-409.86806703 639.26246751 -410.47297271 638.65781987 -411.09620885 638.03484958 C-420.81949664 628.31625133 -430.55285667 618.60780181 -440.28997011 608.90305782 C-450.07692796 599.14816168 -459.85277928 589.38224496 -469.61750373 579.60509225 C-475.41413499 573.80173478 -481.21891392 568.00682064 -487.03587933 562.22384365 C-491.38425889 557.89901677 -495.71671472 553.55855916 -500.04331002 549.21194515 C-501.79154251 547.46049081 -503.54482987 545.71406387 -505.3037298 543.97332259 C-520.10438514 529.31620948 -533.14283087 513.57478899 -533.50500554 491.67453969 C-533.54293529 479.64488091 -531.82048714 470.04413201 -526.63781804 459.13425648 C-526.19695866 458.1844994 -526.19695866 458.1844994 -525.74719304 457.21555531 C-520.12217558 446.08413738 -509.64981102 437.5027735 -500.90525883 428.78144276 C-499.67221249 427.54795953 -498.43938625 426.31425623 -497.20675921 425.08035398 C-493.84306358 421.71443643 -490.4762818 418.35162114 -487.1089595 414.98933232 C-483.46922771 411.35393812 -479.83240606 407.71563461 -476.1952216 404.07769215 C-469.90113401 397.78308141 -463.605225 391.49029729 -457.30805844 385.19876683 C-448.20352887 376.10238068 -439.1017774 367.00321892 -430.0006913 357.90338768 C-415.2330086 343.13789104 -400.46309633 328.37462674 -385.69177312 313.61277211 C-371.34684832 299.27703298 -357.00297914 284.94023899 -342.66052312 270.60202992 C-341.77574994 269.71751947 -340.89097677 268.83300902 -339.97939228 267.92169522 C-335.54054161 263.48414963 -331.10171162 259.04658334 -326.66289192 254.60900676 C-289.86607425 217.8225478 -253.06563435 181.03971407 -216.26281804 144.25925648 C-212.714768 145.93246546 -210.39445925 147.86953413 -207.59904546 150.6488744 C-206.66654469 151.57140004 -205.73404393 152.49392567 -204.77328557 153.44440663 C-203.74714194 154.46965452 -202.72111433 155.49501853 -201.69519109 156.52048695 C-200.60963959 157.59841595 -199.52368688 158.67594101 -198.43736333 159.75309193 C-195.4906137 162.67790724 -192.55045357 165.60925999 -189.61211056 168.54251826 C-187.77719934 170.37378672 -185.94099662 172.20375 -184.10434979 174.03327763 C-177.70052248 180.41262076 -171.30242683 186.797655 -164.90905827 193.18747914 C-158.94275806 199.15013788 -152.96343577 205.09951824 -146.97808492 211.0430479 C-141.84310158 216.14340088 -136.71772 221.25327029 -131.59967327 226.3706181 C-128.54112354 229.42837299 -125.4786844 232.48197697 -122.40637845 235.52591527 C-119.52010414 238.38613103 -116.64590154 241.25793779 -113.78069562 244.13925374 C-112.72519844 245.19657476 -111.66538402 246.24960545 -110.60107487 247.29805577 C-109.15313587 248.72571925 -107.7218869 250.170252 -106.29167241 251.61567128 C-105.48476806 252.42056429 -104.67786372 253.22545731 -103.84650773 254.05474102 C-102.26281804 256.25925648 -102.26281804 256.25925648 -102.45022362 258.37052548 C-102.85245786 259.30544733 -102.85245786 259.30544733 -103.26281804 260.25925648 C-110.00204105 280.09801339 -109.42241548 300.76171639 -100.32092351 319.73679554 C-95.86101492 328.53224055 -90.33847289 335.44880609 -83.26281804 342.25925648 C-82.61957585 342.92183461 -81.97633366 343.58441273 -81.31359929 344.26706898 C-75.00613768 350.36929865 -68.47242964 352.88079696 -60.26281804 357.25925648 C-60.26281804 448.00925648 -60.26281804 538.75925648 -60.26281804 632.25925648 C-64.88281804 634.56925648 -69.50281804 636.87925648 -74.26281804 639.25925648 C-89.76156511 650.05907924 -102.03947279 666.58578781 -106.26281804 685.25925648 C-108.9672856 700.66888461 -108.3080627 715.81527497 -102.26281804 730.25925648 C-101.76652898 731.45937367 -101.27023991 732.65949086 -100.75891179 733.89597523 C-92.90789466 751.09254046 -79.15224305 764.64015864 -61.69250554 772.00925648 C-41.31861977 779.43481849 -20.2430116 779.72663151 -0.17297429 770.70456898 C19.3562079 761.00551206 32.80056141 746.91390881 40.67468196 726.32175648 C43.18133419 718.54573866 43.20082132 710.61665449 43.23718196 702.50925648 C43.24354671 701.28988392 43.24991145 700.07051136 43.25646907 698.81418812 C42.95149448 677.07848695 33.68843541 660.62155313 18.43640071 645.62644398 C14.21253601 641.92215743 9.57101133 639.0903845 4.73718196 636.25925648 C3.74718196 635.59925648 2.75718196 634.93925648 1.73718196 634.25925648 C1.36458647 632.26678753 1.36458647 632.26678753 1.36803848 629.76523602 C1.36206533 628.81377033 1.35609218 627.86230463 1.34993804 626.88200665 C1.35867656 625.82949439 1.36741508 624.77698214 1.37641841 623.69257557 C1.37385514 622.58014048 1.37129186 621.46770539 1.36865091 620.32156014 C1.36368288 616.56871434 1.38025594 612.81626486 1.39660579 609.0634557 C1.39745141 606.38338254 1.39711051 603.70333417 1.39527828 601.02326405 C1.39370287 595.24030222 1.40313987 589.4574417 1.41999179 583.67450535 C1.44434117 575.31329907 1.45218289 566.95214191 1.45595577 558.59090401 C1.46252665 545.02638824 1.48250504 531.4619265 1.5108636 517.89744008 C1.53838772 504.71840637 1.55962935 491.53938733 1.57238704 478.3603307 C1.57317521 477.54839335 1.57396338 476.736456 1.57477544 475.89991449 C1.57869046 471.82678847 1.58248161 467.75366234 1.58621114 463.68053615 C1.61732687 429.87340374 1.67017995 396.06633673 1.73718196 362.25925648 C5.70759182 365.60895102 9.58805246 368.9850956 13.26145869 372.6632787 C14.08725429 373.48769963 14.91304988 374.31212056 15.76386958 375.16152394 C16.64572429 376.04697392 17.527579 376.9324239 18.43615657 377.8447057 C19.39262689 378.80145863 20.34931852 379.75799036 21.30621272 380.71431935 C23.88440537 383.29222689 26.45951857 385.87319026 29.03406149 388.45474207 C31.73217176 391.15913382 34.43314326 393.86066496 37.13380367 396.56250966 C42.23902265 401.67082788 47.3416887 406.78168824 52.44342697 411.89348245 C58.25527613 417.71653659 64.06998924 423.53672733 69.88493651 429.35668743 C81.83885913 441.32104254 93.78920673 453.28896218 105.73718196 465.25925648 C105.52909404 465.87735692 105.32100612 466.49545735 105.1066125 467.1322881 C104.83476634 467.94303288 104.56292018 468.75377766 104.28283626 469.58909047 C104.01287334 470.3928159 103.74291042 471.19654133 103.4647668 472.02462208 C99.17837337 485.1894404 99.71632395 499.88666848 102.73718196 513.25925648 C102.90862727 514.06234242 103.08007259 514.86542836 103.25671321 515.69285023 C106.77305935 529.50868765 114.6904154 540.49279618 124.73718196 550.25925648 C125.43972102 550.94761586 126.14226009 551.63597523 126.86608821 552.34519398 C140.77181029 565.21149845 156.91940297 569.61597966 175.42468196 569.63425648 C176.71052181 569.65874867 177.99636165 569.68324086 179.32116634 569.70847523 C196.7118271 569.76120083 211.53190725 563.3608118 224.73718196 552.25925648 C225.56733821 551.61859242 226.39749446 550.97792836 227.25280696 550.31785023 C241.1602899 538.79388245 248.69830856 519.75958651 250.73718196 502.25925648 C252.20319991 481.63337482 247.26868526 462.87726709 234.48718196 446.38425648 C221.00396172 431.06345937 204.03862114 421.68110867 183.73718196 419.25925648 C180.67346986 419.07838211 177.61839245 419.02192816 174.54968196 419.00925648 C173.71686702 419.00530873 172.88405208 419.00136097 172.02600032 418.99729359 C166.07543171 419.05314315 160.77421334 419.8587787 155.08483821 421.70066273 C152.36885784 422.34689433 151.33880109 422.226129 148.73718196 421.25925648 C146.55552131 419.47187912 146.55552131 419.47187912 144.14933711 417.09273732 C143.23366466 416.19419529 142.3179922 415.29565327 141.3745721 414.3698827 C140.36725707 413.36630357 139.36012198 412.36254381 138.35314876 411.35862172 C137.28748514 410.30684578 136.22123191 409.25566696 135.15443355 408.205042 C132.25873541 405.34868639 129.3730822 402.48239082 126.49033266 399.61297309 C124.6892617 397.82069725 122.88644521 396.03019558 121.08307773 394.24023068 C115.44156227 388.6397282 109.80608234 383.03325575 104.17924595 377.41800457 C97.68277736 370.93498523 91.16716633 364.47205504 84.63413048 358.02589089 C79.58551138 353.04209125 74.55429044 348.04116006 69.53597128 343.02685326 C66.53808278 340.03211063 63.53333433 337.04511832 60.51035053 334.07569134 C57.66764948 331.28238344 54.84715393 328.46843126 52.04225665 325.63718045 C51.00959853 324.60220853 49.96920795 323.57488569 48.92068797 322.55598652 C40.99954016 314.84565501 40.99954016 314.84565501 40.34774143 310.90443051 C40.59516841 308.74572194 40.59516841 308.74572194 41.73718196 305.25925648 C41.91378352 304.40460804 42.09038509 303.54995961 42.27233821 302.66941273 C42.44636165 301.89468617 42.62038509 301.11995961 42.79968196 300.32175648 C46.59093316 279.36858189 41.52243375 259.89783596 29.79186946 242.34910023 C17.61165306 226.39646862 -0.30945827 215.17335876 -20.26281804 212.25925648 C-24.10162223 211.99767188 -27.91637276 211.97852589 -31.76281804 212.00925648 C-32.73090398 212.00152211 -33.69898991 211.99378773 -34.69641179 211.98581898 C-40.35753536 212.00101663 -45.49920107 212.53091827 -50.99133366 213.92820179 C-53.79671069 214.33706801 -55.53526917 214.0746614 -58.26281804 213.25925648 C-60.64282006 211.37144578 -60.64282006 211.37144578 -63.15400761 208.84908497 C-63.61972115 208.38678913 -64.0854347 207.92449329 -64.56526077 207.44818848 C-66.1209982 205.89903172 -67.66202092 204.33602763 -69.20349187 202.77268422 C-70.31665639 201.65839126 -71.43070274 200.54497865 -72.5455634 199.4323827 C-75.56865588 196.41043844 -78.57925209 193.37631503 -81.58777517 190.3398751 C-84.73431937 187.1683355 -87.89218546 184.00811061 -91.04887456 180.84667408 C-97.024349 174.85876444 -102.98955342 168.86073087 -108.95114648 162.8590042 C-115.73888307 156.026567 -122.53797352 149.20547669 -129.33804733 142.38532162 C-143.32565241 128.35589985 -157.29891866 114.3122708 -171.26281804 100.25925648 C-166.62505104 94.69885404 -161.69603122 89.53278585 -156.58630437 84.40574086 C-155.30939229 83.11897198 -155.30939229 83.11897198 -154.00668401 81.80620778 C-151.2056532 78.98556432 -148.40070481 76.16884788 -145.59484929 73.35300648 C-144.6224282 72.37653103 -143.65003855 71.40002427 -142.67767972 70.42348683 C-138.10815216 65.83495455 -133.53624777 61.24880694 -128.96139193 56.66558707 C-123.70809151 51.40251871 -118.4631765 46.13127565 -113.22523165 40.8529259 C-109.1564856 36.75389079 -105.07997043 32.66268483 -100.99770248 28.57711661 C-98.56847577 26.14555498 -96.14257276 23.71089596 -93.72489423 21.26784718 C-91.0214361 18.5399148 -88.30548172 15.82502408 -85.58630437 13.11277211 C-84.80306294 12.31672062 -84.01982152 11.52066914 -83.2128455 10.70049489 C-76.22151637 3.77343937 -68.30979616 -1.85570818 -59.13781804 -5.55324352 C-58.22773991 -5.93093883 -57.31766179 -6.30863414 -56.38000554 -6.69777477 C-37.44429721 -13.0334065 -16.94794201 -10.76221949 0 0 Z " fill="#FEFEFE" transform="translate(834.2628180384636,310.74074351787567)"/>
</svg>
