<?xml version="1.0" encoding="UTF-8"?>
<svg version="1.1" xmlns="http://www.w3.org/2000/svg" width="1200" height="1200">
<path d="M0 0 C396 0 792 0 1200 0 C1200 396 1200 792 1200 1200 C804 1200 408 1200 0 1200 C0 804 0 408 0 0 Z " fill="#3178C6" transform="translate(0,0)"/>
<path d="M0 0 C1.52728769 0.13475148 3.05462693 0.26892079 4.58203125 0.40234375 C24.15873902 2.26070411 43.34476923 6.91024651 62 13 C63.28895043 13.41180927 64.57800516 13.82329229 65.8671875 14.234375 C73.81511324 16.81511324 73.81511324 16.81511324 75 18 C75.09550698 19.41678911 75.12188483 20.83831241 75.12025452 22.25831604 C75.12231651 23.63609222 75.12231651 23.63609222 75.12442017 25.04170227 C75.12082489 26.05733749 75.11722961 27.07297272 75.11352539 28.11938477 C75.11367142 29.18266998 75.11381744 30.2459552 75.1139679 31.34146118 C75.11326825 34.87479658 75.10547343 38.40808 75.09765625 41.94140625 C75.09579225 44.38378368 75.09436827 46.82616149 75.09336853 49.26853943 C75.08954189 55.71134464 75.07971037 62.15412748 75.06866455 68.59692383 C75.05845356 75.16552426 75.05387158 81.7341283 75.04882812 88.30273438 C75.03808823 101.20183249 75.02120104 114.10091506 75 127 C73.24871881 126.04704102 71.49771455 125.09357309 69.74682617 124.13989258 C68.77170578 123.60898514 67.79658539 123.0780777 66.79191589 122.53108215 C64.53371557 121.29268876 62.28764689 120.03802581 60.05078125 118.76171875 C40.24834346 107.66353384 18.19061928 100.38958245 -4 95.8125 C-4.74604492 95.65740967 -5.49208984 95.50231934 -6.26074219 95.3425293 C-20.22618048 92.62439403 -34.23327056 91.55999902 -48.4375 91.5625 C-49.59597946 91.56040024 -49.59597946 91.56040024 -50.77786255 91.55825806 C-69.5766599 91.58601729 -88.88455524 93.69323722 -106 102 C-106.92039062 102.41636719 -107.84078125 102.83273437 -108.7890625 103.26171875 C-122.02461972 109.76764758 -130.9045812 119.23082623 -136 133 C-138.41670716 144.42181835 -137.28896263 155.62135812 -131.3515625 165.8359375 C-129.65290504 168.30603765 -127.87328631 170.66053056 -126 173 C-125.236875 174.03125 -124.47375 175.0625 -123.6875 176.125 C-116.0394765 184.30660653 -106.49530197 190.20225344 -97 196 C-95.91332031 196.67417969 -94.82664062 197.34835937 -93.70703125 198.04296875 C-75.01319573 209.26725888 -54.20035327 217.46597047 -34.125 225.875 C-0.12658957 240.13248124 32.14322256 257.45427826 59 283 C59.96679688 283.88751953 59.96679688 283.88751953 60.953125 284.79296875 C82.86629955 305.52856616 96.70662938 337.48866741 98.11315918 367.40701294 C98.17880037 369.83156376 98.21659712 372.25434688 98.23828125 374.6796875 C98.246353 375.57253448 98.25442474 376.46538147 98.26274109 377.38528442 C98.2764739 379.26595178 98.28724353 381.14664294 98.29516602 383.02734375 C98.30661349 384.90795458 98.3269486 386.78853482 98.35668945 388.66894531 C98.83135279 418.82465174 91.04939205 448.49420487 73 473 C72.40960937 473.81339844 71.81921875 474.62679688 71.2109375 475.46484375 C51.78794449 500.96268777 25.01501692 516.84492877 -5 527 C-5.80872559 527.27682617 -6.61745117 527.55365234 -7.45068359 527.83886719 C-41.64008297 539.34871981 -76.97561573 541.2657809 -112.73013687 541.36791611 C-114.77498887 541.37487239 -116.81976903 541.38652992 -118.86459351 541.39907837 C-143.17676449 541.50989215 -167.11993271 539.65437641 -191 535 C-191.8647998 534.83274414 -192.72959961 534.66548828 -193.62060547 534.49316406 C-217.01085803 529.88655297 -237.8859731 522.6147943 -260 513 C-260 474.39 -260 435.78 -260 396 C-256.74470533 397.62764733 -254.11051183 399.3418624 -251.23291016 401.52709961 C-213.06225971 430.50368931 -166.60875867 447.42869775 -118.56103516 447.31567383 C-115.7681545 447.3125205 -112.97634394 447.3360377 -110.18359375 447.36132812 C-94.92347226 447.4167423 -80.04277413 446.12611917 -65.625 440.75 C-64.79121826 440.44626465 -63.95743652 440.1425293 -63.09838867 439.82958984 C-47.21189436 433.85230985 -36.70616286 425.58146089 -29.3125 410.33203125 C-25.2739783 400.07947468 -25.79295454 388.06332387 -29.6875 377.8671875 C-46.80580415 340.47184451 -96.95935997 324.89567236 -132.00314331 310.07925415 C-165.33586653 295.98597193 -195.59822375 280.10457915 -222 255 C-222.70640625 254.35804688 -223.4128125 253.71609375 -224.140625 253.0546875 C-247.71222222 230.92038279 -261.15963223 196.82811245 -262.24615479 164.94125366 C-263.41065308 123.05403359 -254.91936348 86.62151836 -225.62890625 55.37890625 C-168.95333029 -3.82709752 -76.4506902 -7.65757686 0 0 Z " fill="#FEFEFE" transform="translate(1003,560)"/>
<path d="M0 0 C138.6 0 277.2 0 420 0 C420 31.68 420 63.36 420 96 C370.5 96 321 96 270 96 C270 237.57 270 379.14 270 525 C230.4 525 190.8 525 150 525 C150 383.43 150 241.86 150 96 C100.5 96 51 96 0 96 C0 64.32 0 32.64 0 0 Z " fill="#FDFEFE" transform="translate(276,570)"/>
<path d="M0 0 C0.33 0 0.66 0 1 0 C1 33.66 1 67.32 1 102 C-32.66 102 -66.32 102 -101 102 C-101 101.67 -101 101.34 -101 101 C-100.06542969 100.86464844 -99.13085938 100.72929688 -98.16796875 100.58984375 C-76.61172916 97.17714363 -56.45426378 88.45725057 -40 74 C-39.19433594 73.33742188 -38.38867188 72.67484375 -37.55859375 71.9921875 C-16.15923137 53.84124163 -3.96908927 27.4056164 0 0 Z " fill="#000000" transform="translate(1199,1098)"/>
<path d="M0 0 C0.33 0 0.66 0 1 0 C1.13535156 0.93457031 1.27070313 1.86914062 1.41015625 2.83203125 C4.82285637 24.38827084 13.54274943 44.54573622 28 61 C28.66257812 61.80566406 29.32515625 62.61132812 30.0078125 63.44140625 C48.15875837 84.84076863 74.5943836 97.03091073 102 101 C102 101.33 102 101.66 102 102 C68.34 102 34.68 102 0 102 C0 68.34 0 34.68 0 0 Z " fill="#000000" transform="translate(0,1098)"/>
<path d="M0 0 C33.66 0 67.32 0 102 0 C102 33.66 102 67.32 102 102 C101.67 102 101.34 102 101 102 C100.86464844 101.06542969 100.72929688 100.13085938 100.58984375 99.16796875 C97.17714363 77.61172916 88.45725057 57.45426378 74 41 C73.33742188 40.19433594 72.67484375 39.38867188 71.9921875 38.55859375 C53.84124163 17.15923137 27.4056164 4.96908927 0 1 C0 0.67 0 0.34 0 0 Z " fill="#000000" transform="translate(1098,0)"/>
<path d="M0 0 C33.66 0 67.32 0 102 0 C102 0.33 102 0.66 102 1 C100.59814453 1.20302734 100.59814453 1.20302734 99.16796875 1.41015625 C77.61172916 4.82285637 57.45426378 13.54274943 41 28 C39.79150391 28.99386719 39.79150391 28.99386719 38.55859375 30.0078125 C17.15923137 48.15875837 4.96908927 74.5943836 1 102 C0.67 102 0.34 102 0 102 C0 68.34 0 34.68 0 0 Z " fill="#000000" transform="translate(0,0)"/>
</svg>
